<?xml version="1.0" encoding="UTF-8" standalone="no"?>
<!-- Created with Inkscape (http://www.inkscape.org/) -->

<svg
   width="160mm"
   height="160mm"
   viewBox="0 0 160 160"
   version="1.1"
   id="svg5"
   xml:space="preserve"
   xmlns="http://www.w3.org/2000/svg"
   xmlns:svg="http://www.w3.org/2000/svg"><defs
     id="defs2"><clipPath
       clipPathUnits="userSpaceOnUse"
       id="clipPath5442"><path
         style="display:none;fill:#ff0000;fill-rule:evenodd;stroke-width:0.264583"
         id="path5444"
         d="M 45.003362,80.485614 A 35,35 0 0 1 79.328594,45.006433 35,35 0 0 1 114.98949,79.142837 35,35 0 0 1 81.042881,114.98445 35,35 0 0 1 45.021562,81.228585" /><path
         id="lpe_path-effect5446"
         style="fill:#ff0000;fill-rule:evenodd;stroke-width:0.264583"
         class="powerclip"
         d="m 30,30 h 99.99999 v 99.99999 H 30 Z M 45.021562,81.228585 A 35,35 0 0 0 81.042881,114.98445 35,35 0 0 0 114.98949,79.142837 35,35 0 0 0 79.328594,45.006433 35,35 0 0 0 45.003362,80.485614" /></clipPath><clipPath
       clipPathUnits="userSpaceOnUse"
       id="clipath_lpe_path-effect24347"><path
         style="display:block;fill:#ff0000;fill-rule:evenodd;stroke-width:0.264583"
         id="path24349"
         d="M 45.003362,80.485614 A 35,35 0 0 1 79.328594,45.006433 35,35 0 0 1 114.98949,79.142837 35,35 0 0 1 81.042881,114.98445 35,35 0 0 1 45.021562,81.228585" /></clipPath><clipPath
       clipPathUnits="userSpaceOnUse"
       id="clipPath1677"><circle
         style="display:none;fill:#1a0037;fill-opacity:1;stroke:#ffffff;stroke-width:0.499999;stroke-linejoin:round;stroke-dashoffset:8.12597"
         id="circle1679"
         cx="79.999985"
         cy="79.999985"
         r="79.999992" /></clipPath><rect
       x="642.51965"
       y="396.85037"
       width="847.68207"
       height="175.39079"
       id="rect17941" /><rect
       x="642.51965"
       y="283.46457"
       width="689.62665"
       height="131.35986"
       id="rect17731" /></defs><g
     id="layer8"><g
       id="layer1"
       style="display:none"><rect
         style="fill:#1a0037;fill-opacity:1;fill-rule:evenodd;stroke-width:0.266634"
         id="rect2618"
         width="162.5"
         height="162.5"
         x="-1.25"
         y="-1.25"
         ry="0" /></g><g
       id="layer4"
       style="display:inline;stroke:#ffffff;stroke-opacity:1"><path
         style="display:inline;fill:#fdfdfd;fill-opacity:1;fill-rule:evenodd;stroke:#ffffff;stroke-width:5;stroke-linecap:round;stroke-linejoin:round;stroke-dasharray:none;stroke-opacity:1"
         id="rect324"
         width="84.999992"
         height="84.999992"
         x="37.5"
         y="37.5"
         clip-path="url(#clipPath5442)"
         d="m 37.5,37.5 h 84.99999 v 84.99999 H 37.5 Z" /><g
         id="g24504"
         style="display:inline;stroke:#ffffff;stroke-width:2.66103;stroke-dasharray:none;stroke-opacity:1"
         transform="matrix(1.0493069,0,0,1.0551517,-4.1910868,-4.6878947)"><path
           style="fill:none;fill-opacity:1;stroke:#ffffff;stroke-width:2.66103;stroke-linecap:round;stroke-linejoin:round;stroke-dasharray:none;stroke-dashoffset:8.12597;stroke-opacity:1"
           d="m 92.499996,67.499996 c 0,0 -33.749998,-8.749998 -25,25"
           id="path5508" /><path
           style="fill:none;fill-opacity:1;stroke:#ffffff;stroke-width:2.66103;stroke-linecap:round;stroke-linejoin:round;stroke-dasharray:none;stroke-dashoffset:8.12597;stroke-opacity:1"
           d="m 117.5,42.499998 c 0,0 -33.750002,-8.749999 -25.000004,24.999999"
           id="path5508-7" /><path
           style="fill:none;fill-opacity:1;stroke:#ffffff;stroke-width:2.66103;stroke-linecap:round;stroke-linejoin:round;stroke-dasharray:none;stroke-dashoffset:8.12597;stroke-opacity:1"
           d="m 67.499997,92.499996 c 0,0 33.750003,8.750004 24.999999,-24.999999"
           id="path5508-6" /><path
           style="fill:none;fill-opacity:1;stroke:#ffffff;stroke-width:2.66103;stroke-linecap:round;stroke-linejoin:round;stroke-dasharray:none;stroke-dashoffset:8.12597;stroke-opacity:1"
           d="m 92.499996,67.499997 c 0,0 33.750004,8.749999 25.000004,-24.999999"
           id="path5508-5" /><path
           style="fill:none;fill-opacity:1;stroke:#ffffff;stroke-width:2.66103;stroke-linecap:round;stroke-linejoin:round;stroke-dasharray:none;stroke-dashoffset:8.12597;stroke-opacity:1"
           d="m 67.499997,92.499996 c 0,0 -33.749998,-8.749998 -25,25.000004"
           id="path5508-3" /><path
           style="fill:none;fill-opacity:1;stroke:#ffffff;stroke-width:2.66103;stroke-linecap:round;stroke-linejoin:round;stroke-dasharray:none;stroke-dashoffset:8.12597;stroke-opacity:1"
           d="m 42.499997,117.5 c 0,0 33.749998,8.75 25,-25.000004"
           id="path5508-56" /><path
           style="fill:none;fill-opacity:1;stroke:#ffffff;stroke-width:2.66103;stroke-linecap:round;stroke-linejoin:round;stroke-dasharray:none;stroke-dashoffset:8.12597;stroke-opacity:1"
           d="m 82.499997,72.499997 5,5"
           id="path18424" /><path
           style="fill:none;fill-opacity:1;stroke:#ffffff;stroke-width:2.66103;stroke-linecap:round;stroke-linejoin:round;stroke-dasharray:none;stroke-dashoffset:8.12597;stroke-opacity:1"
           d="m 74.999997,74.999997 10,10"
           id="path22782" /><path
           style="fill:none;fill-opacity:1;stroke:#ffffff;stroke-width:2.66103;stroke-linecap:round;stroke-linejoin:round;stroke-dasharray:none;stroke-dashoffset:8.12597;stroke-opacity:1"
           d="m 49.999998,99.999996 10,10.000004"
           id="path22782-2" /><path
           style="fill:none;fill-opacity:1;stroke:#ffffff;stroke-width:2.66103;stroke-linecap:round;stroke-linejoin:round;stroke-dasharray:none;stroke-dashoffset:8.12597;stroke-opacity:1"
           d="m 99.999996,49.999998 10.000004,10"
           id="path22782-6" /><path
           style="fill:none;fill-opacity:1;stroke:#ffffff;stroke-width:2.66103;stroke-linecap:round;stroke-linejoin:round;stroke-dasharray:none;stroke-dashoffset:8.12597;stroke-opacity:1"
           d="m 72.499997,82.499997 5,4.999999"
           id="path22784" /><path
           style="fill:none;fill-opacity:1;stroke:#ffffff;stroke-width:2.66103;stroke-linecap:round;stroke-linejoin:round;stroke-dasharray:none;stroke-dashoffset:8.12597;stroke-opacity:1"
           d="m 107.5,47.499998 5,5"
           id="path18424-6" /><path
           style="fill:none;fill-opacity:1;stroke:#ffffff;stroke-width:2.66103;stroke-linecap:round;stroke-linejoin:round;stroke-dasharray:none;stroke-dashoffset:8.12597;stroke-opacity:1"
           d="M 97.499996,57.499998 102.5,62.499997"
           id="path22784-8" /><path
           style="fill:none;fill-opacity:1;stroke:#ffffff;stroke-width:2.66103;stroke-linecap:round;stroke-linejoin:round;stroke-dasharray:none;stroke-dashoffset:8.12597;stroke-opacity:1"
           d="m 57.499998,97.499996 5,5.000004"
           id="path22784-6" /><path
           style="fill:none;fill-opacity:1;stroke:#ffffff;stroke-width:2.66103;stroke-linecap:round;stroke-linejoin:round;stroke-dasharray:none;stroke-dashoffset:8.12597;stroke-opacity:1"
           d="m 47.499998,107.5 5,5"
           id="path22784-6-0" /></g></g><g
       id="layer7"
       style="display:inline;fill:none;fill-opacity:1;stroke:#ffffff;stroke-width:2.8;stroke-dasharray:none;stroke-opacity:1"><g
         id="g1327"
         style="display:inline;fill:none;fill-opacity:1;stroke:#ffffff;stroke-width:2.8;stroke-dasharray:none;stroke-opacity:1"><path
           style="display:inline;fill:none;fill-opacity:1;stroke:#ffffff;stroke-width:2.8;stroke-linecap:round;stroke-linejoin:round;stroke-dasharray:none;stroke-dashoffset:8.12597;stroke-opacity:1"
           id="path25343-61-4"
           d="m -20.737423,80.079614 a 5.7379766,5.7379766 0 0 1 5.642621,-5.816807 5.7379766,5.7379766 0 0 1 5.8317252,5.627201 5.7379766,5.7379766 0 0 1 -5.6117432,5.846603 5.7379766,5.7379766 0 0 1 -5.861438,-5.596245"
           transform="scale(-1,1)" /><path
           style="display:inline;fill:none;fill-opacity:1;stroke:#ffffff;stroke-width:2.8;stroke-linecap:round;stroke-linejoin:round;stroke-dasharray:none;stroke-dashoffset:8.12597;stroke-opacity:1"
           id="path25343-55-7"
           d="m -25.737424,105.07961 a 5.7379766,5.7379766 0 0 1 5.642621,-5.816811 5.7379766,5.7379766 0 0 1 5.831725,5.627201 5.7379766,5.7379766 0 0 1 -5.611742,5.8466 5.7379766,5.7379766 0 0 1 -5.861439,-5.59624"
           transform="scale(-1,1)" /><path
           style="fill:none;fill-opacity:1;stroke:#ffffff;stroke-width:2.8;stroke-linecap:round;stroke-linejoin:round;stroke-dasharray:none;stroke-dashoffset:8.12597;stroke-opacity:1"
           d="m 31.249999,105 4.999989,-2e-5"
           id="path25914-4" /><path
           style="fill:none;fill-opacity:1;stroke:#ffffff;stroke-width:2.8;stroke-linecap:round;stroke-linejoin:round;stroke-dasharray:none;stroke-dashoffset:8.12597;stroke-opacity:1"
           d="m 26.117169,79.999997 10.132819,-1.1e-5"
           id="path25916-4" /><path
           style="display:inline;fill:none;fill-opacity:1;stroke:#ffffff;stroke-width:2.8;stroke-linecap:round;stroke-linejoin:round;stroke-dasharray:none;stroke-dashoffset:8.12597;stroke-opacity:1"
           id="path25343-61-4-3"
           d="m -25.855518,55.197702 a 5.7379766,5.7379766 0 0 1 5.642621,-5.816808 5.7379766,5.7379766 0 0 1 5.831726,5.627202 5.7379766,5.7379766 0 0 1 -5.611743,5.846603 5.7379766,5.7379766 0 0 1 -5.861439,-5.596245"
           transform="scale(-1,1)" /><path
           style="fill:none;fill-opacity:1;stroke:#ffffff;stroke-width:2.8;stroke-linecap:round;stroke-linejoin:round;stroke-dasharray:none;stroke-dashoffset:8.12597;stroke-opacity:1"
           d="m 31.249999,54.999998 4.999989,-1.1e-5"
           id="path25916-4-0" /></g><g
         id="g1416"
         transform="rotate(90,80.358121,79.641873)"
         style="display:inline;fill:none;fill-opacity:1;stroke:#ffffff;stroke-width:2.8;stroke-dasharray:none;stroke-opacity:1"><path
           style="display:inline;fill:none;fill-opacity:1;stroke:#ffffff;stroke-width:2.8;stroke-linecap:round;stroke-linejoin:round;stroke-dasharray:none;stroke-dashoffset:8.12597;stroke-opacity:1"
           id="path1404"
           d="m -20.737423,80.079614 a 5.7379766,5.7379766 0 0 1 5.642621,-5.816807 5.7379766,5.7379766 0 0 1 5.8317252,5.627201 5.7379766,5.7379766 0 0 1 -5.6117432,5.846603 5.7379766,5.7379766 0 0 1 -5.861438,-5.596245"
           transform="scale(-1,1)" /><path
           style="display:inline;fill:none;fill-opacity:1;stroke:#ffffff;stroke-width:2.8;stroke-linecap:round;stroke-linejoin:round;stroke-dasharray:none;stroke-dashoffset:8.12597;stroke-opacity:1"
           id="path1406"
           d="m -25.737424,105.07961 a 5.7379766,5.7379766 0 0 1 5.642621,-5.816811 5.7379766,5.7379766 0 0 1 5.831725,5.627201 5.7379766,5.7379766 0 0 1 -5.611742,5.8466 5.7379766,5.7379766 0 0 1 -5.861439,-5.59624"
           transform="scale(-1,1)" /><path
           style="fill:none;fill-opacity:1;stroke:#ffffff;stroke-width:2.8;stroke-linecap:round;stroke-linejoin:round;stroke-dasharray:none;stroke-dashoffset:8.12597;stroke-opacity:1"
           d="m 31.249999,105 5.716237,1e-5"
           id="path1408" /><path
           style="fill:none;fill-opacity:1;stroke:#ffffff;stroke-width:2.8;stroke-linecap:round;stroke-linejoin:round;stroke-dasharray:none;stroke-dashoffset:8.12597;stroke-opacity:1"
           d="m 26.117169,79.999997 10.849067,1.1e-5"
           id="path1410" /><path
           style="display:inline;fill:none;fill-opacity:1;stroke:#ffffff;stroke-width:2.8;stroke-linecap:round;stroke-linejoin:round;stroke-dasharray:none;stroke-dashoffset:8.12597;stroke-opacity:1"
           id="path1412"
           d="m -25.855518,55.197702 a 5.7379766,5.7379766 0 0 1 5.642621,-5.816808 5.7379766,5.7379766 0 0 1 5.831726,5.627202 5.7379766,5.7379766 0 0 1 -5.611743,5.846603 5.7379766,5.7379766 0 0 1 -5.861439,-5.596245"
           transform="scale(-1,1)" /><path
           style="fill:none;fill-opacity:1;stroke:#ffffff;stroke-width:2.8;stroke-linecap:round;stroke-linejoin:round;stroke-dasharray:none;stroke-dashoffset:8.12597;stroke-opacity:1"
           d="m 31.249999,54.999998 5.716237,1.1e-5"
           id="path1414" /></g><g
         id="g1430"
         transform="matrix(0,-1,-1,0,159.99999,159.86716)"
         style="fill:none;fill-opacity:1;stroke:#ffffff;stroke-width:2.8;stroke-dasharray:none;stroke-opacity:1"><path
           style="display:inline;fill:none;fill-opacity:1;stroke:#ffffff;stroke-width:2.8;stroke-linecap:round;stroke-linejoin:round;stroke-dasharray:none;stroke-dashoffset:8.12597;stroke-opacity:1"
           id="path1418"
           d="m -20.737423,80.079614 a 5.7379766,5.7379766 0 0 1 5.642621,-5.816807 5.7379766,5.7379766 0 0 1 5.8317252,5.627201 5.7379766,5.7379766 0 0 1 -5.6117432,5.846603 5.7379766,5.7379766 0 0 1 -5.861438,-5.596245"
           transform="scale(-1,1)" /><path
           style="display:inline;fill:none;fill-opacity:1;stroke:#ffffff;stroke-width:2.8;stroke-linecap:round;stroke-linejoin:round;stroke-dasharray:none;stroke-dashoffset:8.12597;stroke-opacity:1"
           id="path1420"
           d="m -25.737424,105.07961 a 5.7379766,5.7379766 0 0 1 5.642621,-5.816811 5.7379766,5.7379766 0 0 1 5.831725,5.627201 5.7379766,5.7379766 0 0 1 -5.611742,5.8466 5.7379766,5.7379766 0 0 1 -5.861439,-5.59624"
           transform="scale(-1,1)" /><path
           style="fill:none;fill-opacity:1;stroke:#ffffff;stroke-width:2.8;stroke-linecap:round;stroke-linejoin:round;stroke-dasharray:none;stroke-dashoffset:8.12597;stroke-opacity:1"
           d="m 31.249999,105 h 4.867177"
           id="path1422" /><path
           style="fill:none;fill-opacity:1;stroke:#ffffff;stroke-width:2.8;stroke-linecap:round;stroke-linejoin:round;stroke-dasharray:none;stroke-dashoffset:8.12597;stroke-opacity:1"
           d="m 26.117169,79.999997 10.000007,7e-6"
           id="path1424" /><path
           style="display:inline;fill:none;fill-opacity:1;stroke:#ffffff;stroke-width:2.8;stroke-linecap:round;stroke-linejoin:round;stroke-dasharray:none;stroke-dashoffset:8.12597;stroke-opacity:1"
           id="path1426"
           d="m -25.855518,55.197702 a 5.7379766,5.7379766 0 0 1 5.642621,-5.816808 5.7379766,5.7379766 0 0 1 5.831726,5.627202 5.7379766,5.7379766 0 0 1 -5.611743,5.846603 5.7379766,5.7379766 0 0 1 -5.861439,-5.596245"
           transform="scale(-1,1)" /><path
           style="fill:none;fill-opacity:1;stroke:#ffffff;stroke-width:2.8;stroke-linecap:round;stroke-linejoin:round;stroke-dasharray:none;stroke-dashoffset:8.12597;stroke-opacity:1"
           d="m 31.249999,54.999998 4.867177,7e-6"
           id="path1428" /></g><g
         id="g2136"
         style="fill:none;fill-opacity:1;stroke:#ffffff;stroke-width:2.8;stroke-dasharray:none;stroke-opacity:1"><path
           style="display:inline;fill:none;fill-opacity:1;stroke:#ffffff;stroke-width:2.8;stroke-linecap:round;stroke-linejoin:round;stroke-dasharray:none;stroke-dashoffset:8.12597;stroke-opacity:1"
           id="path25343-61-4-36"
           d="m 139.99881,79.939233 a 5.7379766,5.7379766 0 0 1 5.64262,-5.816807 5.7379766,5.7379766 0 0 1 5.83173,5.627201 5.7379766,5.7379766 0 0 1 -5.61174,5.846603 5.7379766,5.7379766 0 0 1 -5.86144,-5.596244" /><path
           style="display:inline;fill:none;fill-opacity:1;stroke:#ffffff;stroke-width:2.8;stroke-linecap:round;stroke-linejoin:round;stroke-dasharray:none;stroke-dashoffset:8.12597;stroke-opacity:1"
           id="path25343-55-7-7"
           d="m 134.26258,105.07961 a 5.7379766,5.7379766 0 0 1 5.64262,-5.816811 5.7379766,5.7379766 0 0 1 5.83172,5.627201 5.7379766,5.7379766 0 0 1 -5.61174,5.8466 5.7379766,5.7379766 0 0 1 -5.86144,-5.59624" /><path
           style="fill:none;fill-opacity:1;stroke:#ffffff;stroke-width:2.8;stroke-linecap:round;stroke-linejoin:round;stroke-dasharray:none;stroke-dashoffset:8.12597;stroke-opacity:1"
           d="m 128.74999,105 -5.00001,-2e-5"
           id="path25914-4-5" /><path
           style="fill:none;fill-opacity:1;stroke:#ffffff;stroke-width:2.8;stroke-linecap:round;stroke-linejoin:round;stroke-dasharray:none;stroke-dashoffset:8.12597;stroke-opacity:1"
           d="m 134.99998,79.999986 h -11.25"
           id="path25916-4-3" /><path
           style="display:inline;fill:none;fill-opacity:1;stroke:#ffffff;stroke-width:2.8;stroke-linecap:round;stroke-linejoin:round;stroke-dasharray:none;stroke-dashoffset:8.12597;stroke-opacity:1"
           id="path25343-61-4-3-5"
           d="m 134.26258,55.07961 a 5.7379766,5.7379766 0 0 1 5.64262,-5.816807 5.7379766,5.7379766 0 0 1 5.83172,5.627201 5.7379766,5.7379766 0 0 1 -5.61174,5.846603 5.7379766,5.7379766 0 0 1 -5.86144,-5.596244" /><path
           style="fill:none;fill-opacity:1;stroke:#ffffff;stroke-width:2.8;stroke-linecap:round;stroke-linejoin:round;stroke-dasharray:none;stroke-dashoffset:8.12597;stroke-opacity:1"
           d="m 128.74999,54.999998 -5.00001,-1.1e-5"
           id="path25916-4-0-6" /></g></g></g></svg>
